<svg viewBox="0 0 200 380" xmlns="http://www.w3.org/2000/svg">
  <path d="M 108 56 L 111 55 L 114 54 L 116 52 L 118 50 L 120 48 L 122 46 L 125 44 L 128 42 L 130 41 L 132 40 L 135 38 L 138 36 L 139 34 L 140 32 L 138 30 L 136 28 L 133 27 L 130 26 L 127 27 L 124 28 L 121 29 L 118 30 L 115 31 L 112 32 L 109 33 L 106 34 L 103 36 L 100 38 L 97 37 L 94 36 L 91 35 L 88 34 L 85 35 L 82 36 L 80 38 L 78 40 L 76 44 L 74 48 L 72 53 L 70 58 L 68 63 L 66 68 L 64 73 L 62 78 L 60 83 L 58 88 L 57 93 L 56 98 L 55 103 L 54 108 L 53 113 L 52 118 L 51 123 L 50 128 L 49 133 L 48 138 L 47 143 L 46 148 L 45 153 L 44 158 L 43 163 L 42 168 L 42 173 L 42 178 L 42 183 L 42 188 L 43 193 L 44 198 L 45 203 L 46 208 L 47 213 L 48 218 L 49 223 L 50 228 L 51 233 L 52 238 L 53 243 L 54 248 L 55 253 L 56 258 L 57 263 L 58 268 L 59 273 L 60 278 L 61 283 L 62 288 L 63 293 L 64 298 L 66 302 L 68 306 L 70 309 L 72 312 L 75 315 L 78 318 L 81 320 L 84 322 L 87 324 L 90 326 L 93 327 L 96 328 L 99 328 L 102 328 L 105 327 L 108 326 L 110 324 L 112 322 L 114 319 L 116 316 L 117 312 L 118 308 L 119 303 L 120 298 L 121 293 L 122 288 L 123 283 L 124 278 L 126 273 L 128 268 L 129 263 L 130 258 L 131 253 L 132 248 L 133 243 L 134 238 L 135 233 L 136 228 L 137 223 L 138 218 L 139 213 L 140 208 L 141 203 L 142 198 L 143 193 L 144 188 L 144 183 L 144 178 L 145 173 L 146 168 L 147 163 L 148 158 L 148 153 L 148 148 L 148 143 L 148 138 L 147 133 L 146 128 L 145 123 L 144 118 L 143 113 L 142 108 L 141 103 L 140 98 L 139 93 L 138 88 L 137 83 L 136 78 L 135 73 L 134 68 L 132 64 L 130 60 L 127 57 L 124 54 L 121 52 L 118 50 L 113 53 Z" fill="#2d5016" stroke="none"/>
</svg>