<svg viewBox="0 0 200 380" xmlns="http://www.w3.org/2000/svg">
  <path d="M 108 56 L 114 54 L 118 50 L 122 46 L 128 42 L 132 40 L 138 36 L 140 32 L 136 28 L 130 26 L 124 28 L 118 30 L 112 32 L 106 34 L 100 38 L 94 36 L 88 34 L 82 36 L 78 40 L 74 48 L 70 58 L 66 68 L 62 78 L 58 88 L 56 98 L 54 108 L 52 118 L 50 128 L 48 138 L 46 148 L 44 158 L 42 168 L 42 178 L 42 188 L 44 198 L 46 208 L 48 218 L 50 228 L 52 238 L 54 248 L 56 258 L 58 268 L 60 278 L 62 288 L 64 298 L 68 306 L 72 312 L 78 318 L 84 322 L 90 326 L 96 328 L 102 328 L 108 326 L 112 322 L 116 316 L 118 308 L 120 298 L 122 288 L 124 278 L 128 268 L 130 258 L 132 248 L 134 238 L 136 228 L 138 218 L 140 208 L 142 198 L 144 188 L 144 178 L 146 168 L 148 158 L 148 148 L 148 138 L 146 128 L 144 118 L 142 108 L 140 98 L 138 88 L 136 78 L 134 68 L 130 60 L 124 54 L 118 50 Z M 22 168 L 20 172 L 18 178 L 20 184 L 24 188 L 28 186 L 30 180 L 28 174 L 24 170 Z M 2 142 L 4 140 L 8 140 L 10 142 L 8 146 L 4 146 Z M 152 262 L 154 260 L 156 262 L 154 266 L 152 264 Z M 154 282 L 156 278 L 160 278 L 162 282 L 160 286 L 156 286 Z M 14 6 L 16 4 L 18 6 L 16 10 L 14 8 Z" fill="#2d5016" stroke="none"/>
</svg>